<?xml version="1.0" encoding="UTF-8"?>
<svg width="333px" height="78px" viewBox="0 0 333 78" version="1.1" xmlns="http://www.w3.org/2000/svg" xmlns:xlink="http://www.w3.org/1999/xlink">
    <title>Page 1</title>
    <defs>
        <polygon id="path-1" points="0 0.6317029 0 77.0714329 45.619335 77.0714329 45.619335 0.6317029"></polygon>
        <polygon id="path-3" points="0 77.3683857 332.46628 77.3683857 332.46628 0.92838573 0 0.92838573"></polygon>
    </defs>
    <g id="Page-1" stroke="none" stroke-width="1" fill="none" fill-rule="evenodd">
        <g id="Restaurant" transform="translate(-794, -31)">
            <g id="Page-1" transform="translate(794, 31)">
                <g id="Group-3" transform="translate(0, 0.297)">
                    <mask id="mask-2" fill="white">
                        <use xlink:href="#path-1"></use>
                    </mask>
                    <g id="Clip-2"></g>
                    <path d="M31.6509095,66.0140919 C31.3512093,65.9453776 31.0394846,65.9249489 30.7351595,65.8794491 C29.1136343,65.1198778 27.4199594,64.5144492 25.7161096,63.9275922 C25.7151846,63.9155205 25.7235095,63.9080921 25.7207345,63.8960204 C25.4654345,62.9507349 25.0029345,61.9395206 24.4470095,61.0527349 C24.6116595,61.1604492 24.7874095,61.2486635 24.9502095,61.3591635 C27.1600345,62.8578778 29.3097342,64.6593061 31.6509095,66.0140919 M23.5627094,60.515093 C23.8198597,61.5736645 24.2906845,62.6935215 24.8743595,63.6369502 C23.5164594,63.1708072 22.1576344,62.705593 20.8293345,62.1670216 C20.4093846,60.7110216 19.6388595,59.1788786 18.6407845,57.9735929 C20.3594345,58.6570215 21.9846597,59.54195 23.5627094,60.515093 M18.0580354,57.7674506 C18.5140608,59.0971651 19.1153104,60.4389508 19.7378355,61.7194506 C18.7369858,61.272808 17.7851601,60.7788079 16.8610853,60.2606647 C16.2894353,59.0628079 15.4939355,57.8853793 14.7030606,56.8788078 C14.5633856,56.7023793 14.3376856,56.893665 14.3959604,57.075665 C14.6290605,57.8073793 14.9084105,58.5660221 15.2358607,59.3042364 C13.5431106,58.2540222 11.9225106,57.1137364 10.2824855,55.9270222 C10.5507355,55.9028793 10.9077855,55.977165 11.3758355,56.1777365 C12.8549107,55.8193079 14.9879603,56.7655222 16.3393857,57.1703793 C16.923061,57.3449507 17.4910108,57.556665 18.0580354,57.7674506 M12.2064845,59.0795229 C13.4755845,60.0526658 14.8695595,60.9440943 16.3366096,61.7491658 C16.0119345,61.7695945 15.6900346,61.8355228 15.3477845,61.9757374 C15.1988596,62.0360944 15.2765595,62.2747372 15.4291846,62.2413088 C15.9471845,62.1298801 16.4735094,62.0853086 17.0026093,62.0890232 C18.2902095,62.7640943 19.6194346,63.3880945 20.9745595,63.9294516 C20.0116343,64.0325231 19.054259,64.1773801 18.1514594,64.5042376 C18.1227847,64.51538 18.1153844,64.5404517 18.0941097,64.5571659 C15.6178845,63.4215232 13.8557595,61.5077373 12.2064845,59.0795229 M19.5102855,65.082737 C20.4010605,64.9573799 21.2733355,64.6815942 22.1215604,64.3658799 C23.5109103,64.8775228 24.9067356,65.3250942 26.2775855,65.6853799 C25.3627605,65.7039513 24.4460855,65.7243798 23.5349606,65.7030227 C22.0068605,65.6658799 20.6887355,65.4458085 19.5102855,65.082737 M22.5785105,21.126022 C22.5091354,21.573594 22.4490105,22.0564508 22.3962854,22.5458082 C22.1983353,22.6219512 22.0392355,22.7510227 21.9310104,22.9274509 C21.5203105,20.8808798 20.9801105,18.843594 20.4436105,16.8100221 C20.6193605,16.8239509 20.8034355,16.7775224 20.9153605,16.572308 C21.6618355,15.2100935 22.3278354,13.6733079 22.8180854,12.1393079 C23.2676355,14.9175935 23.0780103,17.9391652 22.5785105,21.126022 M22.6182855,11.1048787 C21.6516605,12.5664498 20.8145355,14.2276643 20.1892355,15.8517356 C19.9468855,14.8878784 19.7258105,13.9240215 19.5500605,12.9573785 C19.5352605,12.8738072 19.5269355,12.7874504 19.5121355,12.7038786 C20.3631355,11.2070215 21.0800105,9.53652145 21.4601854,7.8270216 C21.9892855,8.86887872 22.3592855,9.96645015 22.6182855,11.1048787 M21.0874095,7.1380211 C20.4288095,8.33216394 19.8220095,9.56252098 19.2263095,10.7965927 C18.8905346,8.27087853 18.6343095,5.65787857 17.7555595,3.3058071 C19.1939345,4.47487858 20.2798845,5.75816416 21.0874095,7.1380211 M17.8758095,12.5571642 C17.1163844,11.8143071 16.2533595,11.1355214 15.3986596,10.53195 C15.2802596,10.4474498 15.1396596,10.4808784 15.0397596,10.5560927 C14.9925846,9.11959271 15.1711096,7.69887841 15.5494346,6.3190212 C16.0230346,6.8808069 16.5826596,7.41287833 17.1524596,7.84373551 C17.3800096,9.39630694 17.6121844,10.9758068 17.8758095,12.5571642 M16.9406345,6.4471643 C16.6113345,6.0469501 16.2172845,5.71545004 15.7927095,5.45823569 C15.9962095,4.87787858 16.2376345,4.30587855 16.5299345,3.7487357 C16.6742345,4.61880711 16.8055845,5.53995004 16.9406345,6.4471643 M15.0490105,11.0101649 C15.8528355,11.857022 16.8546105,12.6249506 17.9581356,13.0381648 C18.2643106,14.8173079 18.6037855,16.5899507 19.0598105,18.3022362 C18.0867105,17.4200932 17.1034355,16.5435218 16.0794605,15.7245218 C16.0637355,15.7124505 16.0470855,15.7198789 16.0304355,15.7105934 C15.4809855,14.1719506 15.1461355,12.5878077 15.0490105,11.0101649 M16.6150355,17.1517359 C17.3994355,17.8704502 18.2874355,18.4610217 19.2485104,18.9215931 C19.9089606,21.2523075 20.7673605,23.4567361 21.9439606,25.4169502 C21.9448853,25.4457359 21.9439606,25.4735934 21.9439606,25.5023789 C20.1827604,22.6813789 18.0275106,20.215093 16.6150355,17.1517359 M22.074385,44.6272369 C22.0494098,44.622594 22.0244353,44.6170228 21.9985349,44.6133083 C18.3947347,43.1498799 14.6373851,42.449737 11.174185,40.5879515 C12.34431,40.69938 13.523685,40.6269514 14.6780852,40.3920229 C17.0229598,42.1730228 19.4714347,43.6875227 22.074385,44.6272369 M21.0846345,43.3532359 C19.0237341,41.3094503 16.6418595,39.5479506 14.3339844,37.7242362 C14.4995594,37.6211649 14.6299845,37.4549503 14.5929845,37.2005217 C14.3478595,35.4956646 13.9186595,33.6905218 13.3340595,32.0070219 C15.5744095,34.1622362 17.4123842,36.9609503 19.0866343,40.1134504 C19.6342345,41.145093 20.3030095,42.2900213 21.0846345,43.3532359 M12.4701096,31.2260923 C12.5857346,33.1658776 12.9474094,35.1948066 13.4728095,37.0473064 C12.6190346,36.3583062 11.7837594,35.6535208 10.9873345,34.9162348 C10.9188845,34.852164 10.8532094,34.7806635 10.7847595,34.717521 C10.5442596,32.8241637 10.0688095,30.8676636 9.27053451,29.1015209 C10.4295595,29.668878 11.4849845,30.3922351 12.4701096,31.2260923 M9.26591011,33.2225209 C7.29288508,31.2130925 5.33188511,29.0727351 2.99256011,27.5805209 C5.04051009,27.6520209 6.85351,28.0615209 8.48428521,28.7412352 C8.69333519,30.239021 8.97361027,31.7321635 9.26591011,33.2225209 M4.35693501,30.9038782 C3.80101004,30.770164 3.23306005,30.7413782 2.68731002,30.7970924 C2.48103499,30.148021 2.31546002,29.4803783 2.20353501,28.7923069 C2.90838504,29.4664497 3.63636006,30.1925925 4.35693501,30.9038782 M3.04251001,31.7210229 C3.83523503,31.9020943 4.68160994,31.9977372 5.472485,31.9977372 C6.70458506,33.2188085 7.95703517,34.4603085 9.24001001,35.6813799 C8.07451002,35.533737 6.86183485,35.5105226 5.70465996,35.5476656 C5.54463505,35.5532369 5.442885,35.6758085 5.40403504,35.8104513 C4.40965998,34.5717371 3.62433499,33.1946656 3.04251001,31.7210229 M5.71298521,36.2041656 C6.98578524,36.4158799 8.3825352,36.4251656 9.63221008,36.0518799 C11.0844603,37.4205942 12.5607604,38.7614514 14.0999602,39.9704514 C12.6541852,39.8413801 11.2028603,39.7243798 9.75431009,39.6853799 C9.73303527,39.6844514 9.72101036,39.7011656 9.70158512,39.70488 C8.19383514,38.7122371 6.84703515,37.5348085 5.71298521,36.2041656 M28.9184571,51.7521664 C31.0505851,57.1685201 33.5712074,62.4168093 36.5043827,67.4320259 C31.2781335,64.7066635 26.913058,60.8224505 21.6877331,58.1407352 C17.5788835,56.0310237 13.1083598,54.9288104 8.5508845,54.3577392 C8.07543476,54.298308 7.6656601,54.6808809 7.60645937,55.1358782 C6.88588433,60.7305239 12.3433845,65.5015229 17.1358092,67.3335943 C23.8059835,69.8834509 31.2420588,67.4877352 37.8789326,70.2743794 C38.0167589,70.3319539 38.1360819,70.3263815 38.2554071,70.320809 C39.6123819,72.6180962 41.0442822,74.8661653 42.535384,77.0715229 C43.5630597,76.9870263 44.5916569,76.8988071 45.6193325,76.8087381 C43.6537061,74.2960236 41.7019572,71.7805221 39.8084829,69.216739 C31.1893343,55.4116655 25.6115846,39.7800915 23.6515087,23.2998069 C23.6367083,23.1800227 23.5960082,23.0713788 23.5423594,22.9710928 C23.8670332,19.2317363 25.1666586,15.2249505 24.5432089,11.6341647 C23.7625093,7.1361644 21.0837087,3.35780731 17.3716847,0.812592857 C16.9850337,0.54702143 16.4402096,0.557235717 16.1368092,0.954664296 C10.0503097,8.91995028 14.1073599,20.6673074 21.0716834,26.8618078 C21.3547342,27.2620214 21.6775585,27.6343789 22.0105588,27.9863086 C22.2917593,34.0405931 23.4757592,40.0716635 25.7975096,45.6700219 C25.577358,45.5632355 25.3609092,45.4499517 25.1527829,45.3283053 C25.100983,45.1964512 25.0121842,45.0813054 24.844758,45.0367333 C24.7559587,45.0125936 24.6662361,45.0014517 24.5765085,44.9819489 C19.9801834,41.7644486 18.7314332,34.3618803 14.524534,30.4061647 C10.8476595,26.9509511 5.97105957,25.4020931 0.999184948,25.6333075 C0.481184958,25.6574502 0.0057349994,26.0298077 0.000184999941,26.5860228 C-0.0941649959,37.7000929 11.2907348,45.37381 21.5610088,46.1937371 C22.7339094,46.5688778 23.9919081,46.7629508 25.0926597,46.6970215 C25.4978063,46.8437401 25.9214585,46.9300941 26.3571342,46.9746662 C27.0989831,48.6163795 27.9712578,50.2023834 28.9184571,51.7521664" id="Fill-1" fill="#1A2762" mask="url(#mask-2)"></path>
                </g>
                <polygon id="Fill-4" fill="#1A2762" points="81.975816 42.9534867 81.975816 47.225844 60.19114 47.225844 60.19114 16.58113 65.1398903 16.58113 65.1398903 42.9534867"></polygon>
                <path d="M90.299886,35.6173995 C90.299886,40.8638291 92.658636,43.789757 96.8211359,43.789757 C100.984561,43.789757 103.389561,40.8638291 103.389561,35.6173995 C103.389561,30.3709706 100.984561,27.445042 96.8211359,27.445042 C92.658636,27.445042 90.299886,30.3709706 90.299886,35.6173995 M108.33831,35.617399 C108.33831,43.1852554 104.03706,47.689756 96.821135,47.689756 C89.6061359,47.689756 85.304886,43.1852554 85.304886,35.617399 C85.304886,28.0495419 89.6061359,23.545042 96.821135,23.545042 C104.03706,23.545042 108.33831,28.0495419 108.33831,35.617399" id="Fill-6" fill="#1A2762"></path>
                <path d="M129.149889,24.0094207 L128.363639,28.5594211 C127.716139,28.1889208 126.698639,27.9567783 125.449889,27.9567783 C122.674889,27.9567783 119.621464,30.1844214 119.621464,34.9210644 L119.621464,47.225565 L114.672714,47.225565 L114.672714,24.0094207 L118.881464,24.0094207 L119.297714,28.1889208 C120.546464,25.1710636 122.998639,23.545135 126.606139,23.545135 C127.531139,23.545135 128.502389,23.6844207 129.149889,24.0094207" id="Fill-8" fill="#1A2762"></path>
                <path d="M136.78067,33.6677712 L149.269095,33.6677712 C148.760345,29.7677712 146.586595,27.4927712 143.16317,27.4927712 C139.55567,27.4927712 137.33567,29.6739854 136.78067,33.6677712 M153.709094,37.4749148 L136.78067,37.4749148 C137.33567,41.5606287 139.78692,43.7436986 143.48692,43.7436986 C146.540344,43.7436986 148.575344,42.6284857 149.315345,40.585628 L153.431594,42.3034858 C151.766595,45.7401275 148.575344,47.690128 143.48692,47.690128 C136.17942,47.690128 131.87817,43.1856274 131.87817,35.617771 C131.87817,28.0489853 135.94817,23.545414 143.163169,23.545414 C150.101594,23.545414 153.894094,28.1891997 153.894094,34.9213423 C153.894094,35.8034859 153.801593,36.8713428 153.709094,37.4749148" id="Fill-10" fill="#1A2762"></path>
                <path d="M196.49108,32.1815005 L196.49108,47.225287 L191.541404,47.225287 L191.541404,32.9717148 C191.541404,29.1636431 189.50733,27.6315001 186.778581,27.6315001 C183.540155,27.6315001 180.765156,30.0922148 180.765156,34.5967145 L180.765156,47.225287 L175.81548,47.225287 L175.81548,32.9717148 C175.81548,29.1636431 173.78048,27.6315001 171.052655,27.6315001 C168.277655,27.6315001 165.03923,29.6743573 165.03923,34.8743578 L165.03923,47.225287 L160.09048,47.225287 L160.09048,24.0091427 L164.48423,24.0091427 L164.71548,27.8636431 C166.33423,24.9377143 169.202655,23.544857 172.208906,23.544857 C175.538904,23.544857 178.591405,25.0315 180.025156,28.1886428 C181.505154,25.0315 184.881406,23.544857 187.98108,23.544857 C192.42108,23.544857 196.49108,26.2841428 196.49108,32.1815005" id="Fill-12" fill="#1A2762"></path>
                <mask id="mask-4" fill="white">
                    <use xlink:href="#path-3"></use>
                </mask>
                <g id="Clip-15"></g>
                <polygon id="Fill-14" fill="#1A2762" mask="url(#mask-4)" points="204.9985 47.225099 207.635675 47.225099 207.635675 16.580385 204.9985 16.580385"></polygon>
                <path d="M235.386224,35.6173996 C235.386224,29.581685 232.333725,25.8673992 227.153725,25.8673992 C222.48155,25.8673992 219.2903,29.3031136 219.15155,34.9673993 L219.15155,36.2673987 C219.2903,41.9326136 222.4353,45.3683282 227.153725,45.3683282 C232.333725,45.3683282 235.386224,41.6540428 235.386224,35.6173996 M238.0234,35.6174003 C238.0234,43.1852573 233.998725,47.6897586 227.47655,47.6897586 C223.5453,47.6897586 220.53905,45.7397575 219.15155,42.629043 L219.15155,56.976402 L216.5153,56.976402 L216.5153,24.0093277 L218.87405,24.0093277 L219.0128,28.9316856 C220.35405,25.6352565 223.407475,23.545042 227.47655,23.545042 C233.998725,23.545042 238.0234,28.0495423 238.0234,35.6174003" id="Fill-16" fill="#1A2762" mask="url(#mask-4)"></path>
                <path d="M242.78531,42.3033008 L244.95906,40.864015 C245.97656,43.9292287 249.02906,45.3685142 252.822484,45.3685142 C257.031234,45.3685142 259.297484,43.6033005 259.297484,41.1899436 C259.297484,39.0532998 257.678734,37.8461576 252.591235,36.9640136 C246.02281,35.756872 243.71031,33.9925857 243.71031,30.2783002 C243.71031,26.5640148 247.22531,23.545229 252.636559,23.545229 C257.493734,23.545229 260.407484,25.3095146 261.563734,29.2095147 L259.343734,30.510443 C258.372485,27.2130863 256.059985,25.8675861 252.636559,25.8675861 C249.02906,25.8675861 246.347485,27.7711576 246.347485,29.9997287 C246.347485,32.3675863 248.05781,33.620229 253.284984,34.5033002 C259.667484,35.5711572 261.933734,37.4282995 261.933734,41.0497289 C261.933734,45.0425862 258.279984,47.689943 252.544984,47.689943 C248.05781,47.689943 244.21906,45.924729 242.78531,42.3033008" id="Fill-17" fill="#1A2762" mask="url(#mask-4)"></path>
                <path d="M287.879056,24.009422 L287.879056,47.2255664 L285.566556,47.2255664 L285.381556,42.9077087 C283.855306,46.0648523 280.664056,47.689852 276.640306,47.689852 C271.82938,47.689852 268.26813,45.0898514 268.26813,39.2853513 L268.26813,24.009422 L270.90438,24.009422 L270.90438,38.6353507 C270.90438,43.4648512 273.21688,45.3684239 277.102806,45.3684239 C282.005305,45.3684239 285.242806,41.9327092 285.242806,37.1496374 L285.242806,24.009422 L287.879056,24.009422 Z" id="Fill-18" fill="#1A2762" mask="url(#mask-4)"></path>
                <path d="M332.466075,32.1814987 L332.466075,47.1788553 L329.8289,47.1788553 L329.8289,32.460071 C329.8289,27.9564992 327.146401,25.8198565 323.4464,25.8198565 C319.190476,25.8198565 315.63015,29.1172132 315.63015,34.0386415 L315.63015,47.225284 L312.992975,47.225284 L312.992975,32.5074274 C312.992975,28.0029277 310.356725,25.8672136 306.656724,25.8672136 C302.725475,25.8672136 298.83955,28.8386422 298.83955,34.2707846 L298.83955,47.225284 L296.2033,47.225284 L296.2033,24.0091423 L298.562975,24.0091423 L298.7008,28.3743565 C300.2733,25.2172135 303.46455,23.5448566 306.887975,23.5448566 C310.587976,23.5448566 313.8264,25.2636423 315.074225,28.7457847 C316.415475,25.3555708 320.16265,23.498428 323.67765,23.498428 C328.4414,23.498428 332.466075,26.3314993 332.466075,32.1814987" id="Fill-19" fill="#1A2762" mask="url(#mask-4)"></path>
                <path d="M63.8502549,55.954414 C65.8408553,55.954414 67.0618553,57.132771 67.0618553,59.0549136 C67.0618553,60.6511279 65.85103,62.1990562 64.270205,62.1990562 C64.6226302,62.3615564 65.12768,62.9075565 65.4468051,63.3597708 C65.4468051,63.3597708 66.8629801,65.389628 67.4984551,66.0869846 C68.1598302,66.8112705 68.7675549,67.3266278 69.733255,67.3340558 L69.733255,67.5002706 L68.83138,67.5002706 C67.3023553,67.5002706 66.4818796,66.6729135 65.9657302,66.0535563 C65.7788799,65.8306991 63.92703,63.1257706 63.80123,62.9669848 C63.371105,62.4256284 62.891955,61.8545567 62.2916301,61.8545567 L62.2916301,61.7004138 C62.2916301,61.7004138 62.6662551,61.7087707 63.1602049,61.6957709 C64.0121301,61.6725565 65.2581048,61.4682708 65.7243049,59.9834853 C65.7964551,59.7522707 65.8390047,59.357628 65.8288297,58.9954853 C65.7890553,57.5041996 65.0139054,56.5496283 63.791055,56.480914 C62.9539301,56.4363425 61.959555,56.4762711 61.74588,56.4688425 L61.74588,66.2986991 C61.7560549,66.8734846 62.2231801,67.3359137 62.7976051,67.3359137 L63.00573,67.3359137 L63.0085049,67.501199 L59.419505,67.501199 L59.42228,67.3359137 L59.630405,67.3359137 C60.202055,67.3359137 60.66733,66.8771992 60.68213,66.306128 L60.68213,57.1559854 C60.67103,56.5821282 60.20483,56.1196997 59.62948,56.1196997 L59.421355,56.1196997 L59.41858,55.9553426 L63.8502549,55.954414 Z" id="Fill-20" fill="#1A171B" mask="url(#mask-4)"></path>
                <path d="M80.8010651,67.499902 L73.99029,67.499902 L73.993065,67.3346165 L74.200265,67.3346165 C74.775615,67.3346165 75.241815,66.8721877 75.252915,66.2983306 L75.252915,57.0636878 C75.1964899,56.532545 74.749715,56.1184021 74.20674,56.1184021 L73.998615,56.1184021 L73.99584,55.9549736 L78.7965898,55.9549736 C79.5051401,55.9484736 80.4504899,55.7841164 80.7557403,55.655045 L80.7557403,56.1379021 L80.7557403,56.4136878 L80.7557403,57.7369022 L80.5892397,57.735045 L80.5892397,57.4406879 C80.5892397,56.9179022 80.183165,56.4907592 79.6697898,56.4591878 L76.3203651,56.4591878 L76.3203651,61.5589019 L79.0962902,61.5589019 C79.5365899,61.5505449 79.8917903,61.1893306 79.8917903,60.746402 L79.8917903,60.5031165 L80.0518153,60.5012593 L80.0518153,63.1105451 L79.8917903,63.1086878 L79.8917903,62.8663309 C79.8917903,62.4271169 79.5458399,62.0705449 79.1138654,62.053831 L76.3203651,62.053831 L76.3203651,66.9956878 L78.67634,66.9956878 C80.4171898,66.9956878 81.0859649,66.091259 81.5928651,64.8358302 L81.757515,64.8358302 L80.8010651,67.499902 Z" id="Fill-21" fill="#1A171B" mask="url(#mask-4)"></path>
                <path d="M92.4655934,62.6366926 C93.1223436,63.244907 93.2906935,63.9803361 93.2906935,64.6470507 C93.2906935,66.471693 92.1039187,67.730836 90.2141434,67.730836 C89.4093934,67.730836 88.0783184,67.4996216 87.4335934,66.8301214 C87.3105684,66.3212644 87.3725434,65.2701215 87.6232184,64.5309786 L87.7675184,64.5309786 C87.6019434,66.2302641 88.6740184,67.3176215 90.1364434,67.235907 C91.3352435,67.1699791 92.3379434,66.3444789 92.3379434,65.0259076 C92.3379434,64.3814793 92.1039187,63.871693 91.6932184,63.4891219 L88.5463684,60.555764 C87.8812934,59.9466212 87.6555934,59.1499072 87.6555934,58.5119784 C87.6555934,57.1219071 88.6703184,55.724407 90.5425182,55.724407 C90.9744937,55.724407 91.5156186,55.7977641 91.9522185,55.893407 L92.6024934,55.893407 L92.6024934,56.0893356 L92.6024934,57.9167641 L92.4452435,57.9167641 C92.4489435,56.861907 91.6201434,56.2193356 90.5961684,56.2193356 C89.3853434,56.2193356 88.5759684,57.1107642 88.5759684,58.1154786 C88.5759684,58.5454071 88.7193434,59.1545501 89.2373433,59.6364786 L92.4655934,62.6366926 Z" id="Fill-22" fill="#1A171B" mask="url(#mask-4)"></path>
                <path d="M106.02442,55.9390006 C106.73482,55.9343577 107.69497,55.7681434 108.002995,55.639072 L108.002995,57.7116432 L107.83742,57.7097862 L107.83742,57.4154292 C107.83742,56.887072 107.422095,56.4562148 106.900395,56.4330006 L103.786845,56.4330006 L103.786845,66.3120721 C103.804421,66.8803576 104.26877,67.3353573 104.83857,67.3353573 L105.046695,67.3353573 L105.04947,67.500643 L101.45307,67.500643 L101.455845,67.3353573 L101.663045,67.3353573 C102.229145,67.3353573 102.69072,66.8877859 102.71477,66.3259999 L102.71477,56.4330006 L99.598445,56.4330006 C99.07767,56.4562148 98.662345,56.887072 98.662345,57.4154292 L98.662345,57.7097862 L98.49677,57.7116432 L98.49677,55.639072 C98.80387,55.7681434 99.764945,55.9343577 100.475345,55.9390006 L106.02442,55.9390006 Z" id="Fill-23" fill="#1A171B" mask="url(#mask-4)"></path>
                <path d="M118.82272,62.9976299 L116.842295,57.7047729 L114.775845,62.9976299 L118.82272,62.9976299 Z M121.40902,66.2968442 C121.741094,67.0313446 122.34882,67.3349873 122.85202,67.3349873 L122.98892,67.3349873 L122.98892,67.500273 L119.289845,67.500273 L119.289845,67.3368449 L119.434145,67.3368449 C119.85872,67.3368449 120.298095,66.9617017 120.05852,66.3014876 L119.00772,63.4916299 L114.58252,63.4916299 L113.48177,66.310773 C113.25052,66.9644875 113.688045,67.3368449 114.109845,67.3368449 L114.254145,67.3368449 L114.254145,67.500273 L110.94727,67.500273 L110.94727,67.3349873 L111.09527,67.3349873 C111.59477,67.3349873 112.202495,67.0313446 112.53457,66.2977728 L116.26047,57.4224872 C116.26047,57.4224872 116.86912,56.0872014 116.86912,55.72413 L117.01712,55.72413 L121.40902,66.2968442 Z" id="Fill-24" fill="#1A171B" mask="url(#mask-4)"></path>
                <path d="M138.25309,55.95534 L138.25309,56.1196971 L137.98484,56.1196971 C137.523265,56.1196971 137.14679,56.4437686 137.11719,56.8987686 L137.11719,63.4210543 C137.11719,66.0061974 135.345815,67.731483 132.689215,67.731483 C129.95584,67.731483 128.132665,66.0182689 128.132665,63.4489115 L128.132665,56.9368401 C128.12434,56.46234 127.738615,56.1196971 127.26409,56.1196971 L126.996765,56.1196971 L126.996765,55.95534 L130.33324,55.95534 L130.33324,56.1196971 L130.065915,56.1196971 C129.599715,56.1196971 129.21954,56.4502686 129.19919,56.9117686 L129.19919,63.2074829 C129.19919,65.6096976 130.595015,67.2114827 132.68829,67.2114827 C134.88239,67.2114827 136.34574,65.6951259 136.349441,63.420126 L136.349441,56.9136257 C136.32909,56.4511971 135.948915,56.1206257 135.48179,56.1206257 L135.214465,56.1206257 L135.214465,55.95534 L138.25309,55.95534 Z" id="Fill-25" fill="#1A171B" mask="url(#mask-4)"></path>
                <path d="M148.215905,55.954414 C150.206505,55.954414 151.427505,57.132771 151.427505,59.0549136 C151.427505,60.6511279 150.21668,62.1990562 148.635855,62.1990562 C148.98828,62.3615564 149.49333,62.9075565 149.812455,63.3597708 C149.812455,63.3597708 151.22863,65.389628 151.864105,66.0869846 C152.52548,66.8112705 153.133205,67.3266278 154.098905,67.3340558 L154.098905,67.5002706 L153.19703,67.5002706 C151.668005,67.5002706 150.84753,66.6729135 150.33138,66.0535563 C150.14453,65.8306991 148.29268,63.1257706 148.16688,62.9669848 C147.736755,62.4256284 147.257605,61.8545567 146.65728,61.8545567 L146.65728,61.7004138 C146.65728,61.7004138 147.031905,61.7087707 147.525855,61.6957709 C148.37778,61.6725565 149.623755,61.4682708 150.089955,59.9834853 C150.162105,59.7522707 150.204655,59.357628 150.19448,58.9954853 C150.154705,57.5041996 149.379555,56.5496283 148.156705,56.480914 C147.31958,56.4363425 146.325205,56.4762711 146.11153,56.4688425 L146.11153,66.2986991 C146.121705,66.8734846 146.58883,67.3359137 147.163255,67.3359137 L147.37138,67.3359137 L147.374155,67.501199 L143.785155,67.501199 L143.78793,67.3359137 L143.996055,67.3359137 C144.567705,67.3359137 145.03298,66.8771992 145.04778,66.306128 L145.04778,57.1559854 C145.03668,56.5821282 144.57048,56.1196997 143.99513,56.1196997 L143.787005,56.1196997 L143.78423,55.9553426 L148.215905,55.954414 Z" id="Fill-26" fill="#1A171B" mask="url(#mask-4)"></path>
                <path d="M165.079005,62.9976299 L163.09858,57.7047729 L161.03213,62.9976299 L165.079005,62.9976299 Z M167.665305,66.2968442 C167.99738,67.0313446 168.60603,67.3349873 169.108305,67.3349873 L169.24613,67.3349873 L169.24613,67.500273 L165.54613,67.500273 L165.54613,67.3368449 L165.691355,67.3368449 C166.115005,67.3368449 166.555305,66.9617017 166.314805,66.3014876 L165.264005,63.4916299 L160.83973,63.4916299 L159.73898,66.310773 C159.506805,66.9644875 159.94433,67.3368449 160.367055,67.3368449 L160.511355,67.3368449 L160.511355,67.500273 L157.20448,67.500273 L157.20448,67.3349873 L157.351555,67.3349873 C157.85198,67.3349873 158.45878,67.0313446 158.79178,66.2977728 L162.516755,57.4224872 C162.516755,57.4224872 163.125405,56.0872014 163.125405,55.72413 L163.273405,55.72413 L167.665305,66.2968442 Z" id="Fill-27" fill="#1A171B" mask="url(#mask-4)"></path>
                <path d="M186.089375,55.9553416 L186.0866,56.1196987 L185.7832,56.1196987 C185.23375,56.1196987 184.786975,56.5579844 184.7694,57.1058416 L184.7694,65.6273418 C184.7694,66.689628 184.91925,67.731485 184.91925,67.731485 L184.770325,67.731485 L175.810775,58.1374846 L175.810775,66.3488418 C175.827425,66.8966989 176.275125,67.3359135 176.82365,67.3359135 L177.127975,67.3359135 L177.129825,67.5011994 L173.74525,67.5011994 L173.748025,67.3359135 L174.051425,67.3359135 C174.6055,67.3359135 175.05505,66.8901992 175.065225,66.3367708 L175.065225,57.7679132 C175.065225,56.6424844 174.91445,55.707413 174.91445,55.707413 L175.076325,55.707413 L184.02385,65.2995563 L184.02385,57.1197702 C184.01275,56.565413 183.564125,56.1196987 183.009125,56.1196987 L182.70665,56.1196987 L182.703875,55.954413 L186.089375,55.9553416 Z" id="Fill-28" fill="#1A171B" mask="url(#mask-4)"></path>
                <path d="M198.61932,55.9390006 C199.330645,55.9343577 200.290795,55.7681434 200.59882,55.639072 L200.59882,57.7116432 L200.433245,57.7097862 L200.433245,57.4154292 C200.433245,56.887072 200.01792,56.4562148 199.49622,56.4330006 L196.381745,56.4330006 L196.381745,66.3120721 C196.400245,66.8803576 196.86367,67.3353573 197.434395,67.3353573 L197.641595,67.3353573 L197.64437,67.500643 L194.04797,67.500643 L194.050745,67.3353573 L194.257945,67.3353573 C194.824045,67.3353573 195.28562,66.8877859 195.30967,66.3259999 L195.30967,56.4330006 L192.19427,56.4330006 C191.67257,56.4562148 191.257245,56.887072 191.257245,57.4154292 L191.257245,57.7097862 L191.09167,57.7116432 L191.09167,55.639072 C191.399695,55.7681434 192.359845,55.9343577 193.070245,55.9390006 L198.61932,55.9390006 Z" id="Fill-29" fill="#1A171B" mask="url(#mask-4)"></path>
            </g>
        </g>
    </g>
</svg>